<svg xmlns="http://www.w3.org/2000/svg" width="38" height="36" viewBox="0 0 38 36">
  <path id="Icon_awesome-chart-pie" data-name="Icon awesome-chart-pie" d="M36.868,20.25H20.292L31.331,31.361a1.116,1.116,0,0,0,1.55.048,16.876,16.876,0,0,0,5.108-9.9,1.124,1.124,0,0,0-1.122-1.255Zm-1.106-4.556A16.86,16.86,0,0,0,20.173,0,1.127,1.127,0,0,0,19,1.142V16.875H34.631a1.128,1.128,0,0,0,1.131-1.181ZM15.647,20.25V3.566A1.122,1.122,0,0,0,14.4,2.436,16.831,16.831,0,0,0,.01,19.714,17.021,17.021,0,0,0,16.976,36a16.561,16.561,0,0,0,9.448-3.1,1.122,1.122,0,0,0,.11-1.693Z" transform="translate(0 0)" fill="#d5b493"/>
</svg>
