<svg xmlns="http://www.w3.org/2000/svg" width="21.581" height="21.581" viewBox="0 0 21.581 21.581">
  <path id="Icon_awesome-layer-group" data-name="Icon awesome-layer-group" d="M.523,6.239l9.818,4.454a1.079,1.079,0,0,0,.9,0l9.818-4.454a.942.942,0,0,0,0-1.687L11.239.1a1.079,1.079,0,0,0-.9,0L.523,4.551a.942.942,0,0,0,0,1.688ZM21.057,9.96,18.609,8.85,11.8,11.938a2.43,2.43,0,0,1-2.011,0L2.972,8.85.523,9.96a.941.941,0,0,0,0,1.686L10.341,16.1a1.082,1.082,0,0,0,.9,0l9.819-4.451a.941.941,0,0,0,0-1.686Zm0,5.387-2.439-1.106L11.8,17.333a2.43,2.43,0,0,1-2.011,0L2.963,14.241.523,15.346a.941.941,0,0,0,0,1.686l9.818,4.451a1.082,1.082,0,0,0,.9,0l9.819-4.451a.941.941,0,0,0,0-1.686Z" transform="translate(0 0.001)" fill="#e4c5a1"/>
</svg>
