<svg xmlns="http://www.w3.org/2000/svg" width="13.668" height="19.44" viewBox="0 0 13.668 19.44">
  <path id="Icon_awesome-lightbulb" data-name="Icon awesome-lightbulb" d="M3.73,17.251a1.2,1.2,0,0,0,.208.672L4.6,18.9a1.25,1.25,0,0,0,1.034.542h2.4A1.25,1.25,0,0,0,9.067,18.9l.664-.975a1.2,1.2,0,0,0,.208-.672l0-1.456H3.728l0,1.456ZM0,6.682a6.561,6.561,0,0,0,1.691,4.4A10.855,10.855,0,0,1,3.719,14.55l0,.03H9.945l0-.03a10.855,10.855,0,0,1,2.027-3.472,6.561,6.561,0,0,0,1.691-4.4A6.76,6.76,0,0,0,6.813,0,6.73,6.73,0,0,0,0,6.682ZM6.834,3.645A3.076,3.076,0,0,0,3.728,6.682a.621.621,0,0,1-1.243,0A4.306,4.306,0,0,1,6.834,2.43a.608.608,0,1,1,0,1.215Z" transform="translate(0 0)" fill="#e4c5a1"/>
</svg>
