<svg xmlns="http://www.w3.org/2000/svg" width="19.423" height="16.185" viewBox="0 0 19.423 16.185">
  <path id="Icon_awesome-list" data-name="Icon awesome-list" d="M3.035,15.825H.607A.615.615,0,0,0,0,16.448v2.49a.615.615,0,0,0,.607.623H3.035a.615.615,0,0,0,.607-.623v-2.49A.615.615,0,0,0,3.035,15.825Zm0-12.45H.607A.615.615,0,0,0,0,4v2.49a.615.615,0,0,0,.607.623H3.035a.615.615,0,0,0,.607-.623V4A.615.615,0,0,0,3.035,3.375Zm0,6.225H.607A.615.615,0,0,0,0,10.223v2.49a.615.615,0,0,0,.607.623H3.035a.615.615,0,0,0,.607-.623v-2.49A.615.615,0,0,0,3.035,9.6Zm15.781,6.848H6.677a.615.615,0,0,0-.607.623v1.245a.615.615,0,0,0,.607.623H18.816a.615.615,0,0,0,.607-.623V17.07A.615.615,0,0,0,18.816,16.448Zm0-12.45H6.677a.615.615,0,0,0-.607.623V5.865a.615.615,0,0,0,.607.623H18.816a.615.615,0,0,0,.607-.623V4.62A.615.615,0,0,0,18.816,4Zm0,6.225H6.677a.615.615,0,0,0-.607.623V12.09a.615.615,0,0,0,.607.623H18.816a.615.615,0,0,0,.607-.623V10.845A.615.615,0,0,0,18.816,10.223Z" transform="translate(0 -3.375)" fill="#e4c5a1"/>
</svg>
