<svg xmlns="http://www.w3.org/2000/svg" width="17.984" height="17.984" viewBox="0 0 17.984 17.984">
  <path id="Icon_awesome-ruler-combined" data-name="Icon awesome-ruler-combined" d="M5.62,10.116H3.653a.281.281,0,0,1-.281-.281V9.273a.281.281,0,0,1,.281-.281H5.62V6.744H3.653a.281.281,0,0,1-.281-.281V5.9a.281.281,0,0,1,.281-.281H5.62V3.372H3.653a.281.281,0,0,1-.281-.281V2.529a.281.281,0,0,1,.281-.281H5.62V1.124A1.124,1.124,0,0,0,4.5,0H1.124A1.124,1.124,0,0,0,0,1.124V16.86a1.081,1.081,0,0,0,.055.274L5.62,11.569Zm11.24,2.248H15.736v1.967a.281.281,0,0,1-.281.281h-.562a.281.281,0,0,1-.281-.281V12.364H12.364v1.967a.281.281,0,0,1-.281.281h-.562a.281.281,0,0,1-.281-.281V12.364H8.992v1.967a.281.281,0,0,1-.281.281H8.149a.281.281,0,0,1-.281-.281V12.364H6.415L.85,17.929a1.084,1.084,0,0,0,.274.055H16.86a1.124,1.124,0,0,0,1.124-1.124V13.488A1.124,1.124,0,0,0,16.86,12.364Z" fill="#e4c5a1"/>
</svg>
