<svg xmlns="http://www.w3.org/2000/svg" width="20.142" height="8.952" viewBox="0 0 20.142 8.952">
  <path id="Icon_awesome-ruler-horizontal" data-name="Icon awesome-ruler-horizontal" d="M19.023,9H17.344v3.077a.28.28,0,0,1-.28.28h-.559a.28.28,0,0,1-.28-.28V9H13.987v3.077a.28.28,0,0,1-.28.28h-.559a.28.28,0,0,1-.28-.28V9H10.63v3.077a.28.28,0,0,1-.28.28H9.791a.28.28,0,0,1-.28-.28V9H7.273v3.077a.28.28,0,0,1-.28.28H6.434a.28.28,0,0,1-.28-.28V9H3.916v3.077a.28.28,0,0,1-.28.28H3.077a.28.28,0,0,1-.28-.28V9H1.119A1.119,1.119,0,0,0,0,10.119v6.714a1.119,1.119,0,0,0,1.119,1.119h17.9a1.119,1.119,0,0,0,1.119-1.119V10.119A1.119,1.119,0,0,0,19.023,9Z" transform="translate(0 -9)" fill="#e4c5a1"/>
</svg>
